<?xml version="1.0" standalone="no"?>
<!DOCTYPE svg PUBLIC "-//W3C//DTD SVG 20010904//EN"
 "http://www.w3.org/TR/2001/REC-SVG-20010904/DTD/svg10.dtd">
<svg version="1.0" xmlns="http://www.w3.org/2000/svg"
 width="512.000000pt" height="512.000000pt" viewBox="0 0 512.000000 512.000000"
 preserveAspectRatio="xMidYMid meet">
<metadata>
Created by potrace 1.14, written by Peter Selinger 2001-2017
</metadata>
<g transform="translate(0.000000,512.000000) scale(0.100000,-0.100000)"
fill="#000000" stroke="none">
<path d="M1167 4695 c-8 -8 -17 -12 -20 -9 -15 16 -167 -122 -167 -152 0 -8
-4 -12 -10 -9 -6 4 -10 -17 -10 -54 0 -34 4 -61 8 -61 5 0 9 -22 9 -49 1 -35
9 -62 29 -92 30 -49 58 -79 74 -79 5 0 10 -3 10 -7 0 -10 49 -33 68 -33 7 0
11 -4 8 -9 -7 -11 38 -21 117 -26 66 -4 87 -17 87 -51 0 -12 4 -25 9 -28 9 -6
21 -61 24 -113 1 -18 7 -33 13 -33 7 0 10 -20 9 -52 -1 -29 4 -62 10 -73 7
-11 11 -32 9 -47 -1 -14 3 -29 10 -31 8 -3 12 -22 11 -50 -2 -28 2 -48 10 -50
7 -3 10 -20 9 -41 -2 -20 1 -36 7 -36 7 0 10 -18 7 -45 -2 -25 0 -45 4 -45 3
0 10 -15 13 -32 4 -18 10 -37 14 -43 3 -5 6 -34 7 -62 1 -29 6 -59 13 -66 6
-8 9 -28 7 -45 -2 -18 2 -36 8 -41 7 -6 12 -29 11 -53 -1 -24 4 -52 10 -64 6
-12 10 -40 9 -63 0 -22 3 -41 8 -41 4 0 8 -12 8 -26 0 -14 4 -33 10 -43 5 -10
10 -50 11 -90 1 -39 6 -71 12 -71 5 0 7 -11 5 -24 -3 -16 0 -27 9 -30 9 -4 13
-17 11 -35 -1 -16 2 -35 8 -42 6 -8 12 -32 13 -54 1 -22 5 -42 10 -45 4 -3 7
-23 6 -45 -1 -22 3 -49 9 -60 5 -11 10 -29 11 -40 0 -11 5 -29 11 -40 6 -11 9
-25 7 -32 -2 -7 1 -22 8 -35 15 -27 17 -47 7 -70 -5 -9 -4 -19 2 -23 5 -3 7
-12 3 -20 -3 -9 0 -22 7 -30 6 -8 9 -19 5 -25 -3 -5 -1 -10 5 -10 7 0 9 -7 6
-16 -3 -9 -2 -12 5 -8 7 4 9 -4 6 -25 -3 -17 -1 -33 4 -37 5 -3 7 -10 4 -15
-4 -5 -1 -9 6 -9 7 0 9 -10 6 -27 -3 -14 1 -43 7 -62 7 -20 12 -56 11 -80 -1
-28 3 -45 12 -48 8 -3 11 -13 8 -23 -3 -9 0 -22 7 -28 8 -7 13 -35 12 -79 0
-37 4 -71 9 -75 6 -3 10 -20 9 -37 0 -17 3 -31 8 -31 8 0 15 -44 26 -165 3
-33 10 -64 15 -70 5 -5 9 -21 9 -36 0 -15 5 -31 11 -35 6 -3 9 -19 7 -35 -3
-16 0 -30 4 -31 5 -2 11 -36 13 -75 2 -40 7 -78 11 -85 4 -7 8 -47 9 -89 1
-45 6 -84 13 -92 10 -12 10 -18 0 -28 -8 -8 -13 -23 -13 -34 0 -11 -12 -32
-28 -47 -15 -14 -27 -31 -27 -37 0 -5 -10 -19 -21 -30 -12 -11 -19 -27 -16
-35 3 -8 0 -19 -7 -25 -15 -13 -20 -81 -6 -81 6 0 10 -8 10 -18 0 -45 69 -152
98 -152 8 0 20 -8 27 -17 7 -9 21 -18 31 -21 32 -7 183 -14 197 -9 6 2 16 6
22 8 18 8 55 50 55 64 0 8 5 15 11 15 6 0 9 6 6 14 -3 7 1 23 8 34 8 10 11 22
8 26 -3 3 -1 6 5 6 7 0 11 3 11 8 -1 4 0 9 1 12 7 20 7 45 0 50 -5 3 -10 22
-12 43 -1 20 -7 37 -14 37 -7 0 -14 7 -18 15 -4 11 1 15 19 15 13 0 27 5 30
10 3 6 17 8 31 6 13 -3 30 1 36 8 7 6 24 12 37 13 13 1 27 6 30 10 3 5 17 10
30 10 13 1 27 6 30 10 3 5 13 8 21 8 8 -1 23 4 34 11 10 7 24 10 31 8 6 -3 18
2 25 10 7 9 16 13 22 10 5 -3 14 -1 21 4 7 6 28 12 47 15 19 3 60 13 90 22 30
9 73 22 95 28 22 6 45 15 52 20 7 5 16 6 22 3 5 -3 11 -1 13 4 2 6 10 12 19
13 9 2 28 10 42 20 15 9 33 17 40 17 8 0 25 8 38 18 29 22 63 38 90 41 5 0 8
4 6 9 -3 4 1 13 9 20 8 7 14 10 14 7 0 -3 15 2 33 11 42 22 177 157 177 178 0
9 5 16 10 16 6 0 10 7 10 15 0 8 5 15 10 15 6 0 10 8 10 18 0 10 8 27 18 38 9
10 17 29 16 42 -1 13 4 22 13 22 9 0 13 6 10 14 -3 8 1 17 9 20 9 4 13 15 10
31 -3 16 4 40 17 62 11 20 20 50 19 66 -1 16 2 35 8 41 11 14 16 188 5 205 -3
6 -1 11 6 11 10 0 10 3 2 11 -7 7 -8 21 -2 43 5 17 6 32 2 33 -9 3 -9 81 0 90
4 3 2 14 -4 24 -5 11 -6 19 -1 19 5 0 7 11 4 25 -2 14 -8 25 -12 25 -4 0 -6
10 -6 22 1 13 -2 29 -7 36 -6 7 -6 12 0 12 12 0 8 58 -6 93 -6 16 -9 32 -6 37
3 5 -1 14 -8 22 -7 7 -12 20 -12 28 1 8 -4 24 -11 35 -6 11 -10 28 -9 37 2 9
-4 19 -12 22 -8 3 -11 10 -8 16 3 6 0 13 -8 15 -9 4 -12 16 -9 37 3 21 1 29
-7 24 -7 -5 -11 1 -11 17 0 13 -9 34 -20 47 -11 13 -20 26 -20 29 0 3 -14 21
-30 40 -17 18 -30 38 -30 43 0 10 -13 27 -51 69 -15 15 -24 31 -21 34 3 3 -2
5 -11 5 -10 0 -17 7 -17 16 0 10 -6 14 -15 11 -8 -4 -22 4 -34 19 -11 13 -23
23 -28 22 -10 -4 -73 52 -73 65 0 5 11 7 25 5 18 -4 25 -1 25 10 0 10 7 13 24
10 14 -3 27 0 30 7 2 6 15 11 28 10 12 -1 26 2 29 7 3 5 25 11 49 13 24 2 46
8 49 12 3 4 26 9 51 10 25 2 62 6 84 9 26 4 37 3 32 -4 -3 -6 -2 -13 4 -17 7
-4 7 -12 0 -26 -6 -10 -8 -19 -4 -19 4 0 0 -8 -9 -18 -15 -16 -15 -21 -3 -38
17 -23 83 -29 106 -9 8 7 23 11 33 10 10 -2 20 2 23 10 3 7 13 11 22 9 9 -2
26 3 37 11 18 15 18 16 -24 54 -28 25 -42 45 -38 55 3 8 0 20 -8 26 -16 13
-14 82 3 103 7 8 9 17 6 20 -3 3 -3 10 0 16 7 11 76 -49 70 -60 -2 -3 15 -25
37 -48 l41 -43 -21 -19 c-26 -24 -26 -35 -3 -48 9 -5 16 -12 15 -15 -10 -21 0
-26 22 -12 13 9 33 16 44 16 11 0 22 4 25 9 4 5 17 8 31 6 14 -1 29 3 35 10 6
7 24 11 40 9 21 -3 33 1 36 11 4 9 15 13 29 11 39 -7 39 21 0 40 -19 9 -38 13
-44 10 -5 -4 -14 1 -19 10 -5 9 -12 15 -15 15 -26 -4 -47 0 -43 8 3 5 -12 27
-34 50 -22 23 -40 45 -40 50 0 5 -11 18 -25 29 -13 11 -21 22 -18 26 3 3 1 6
-6 6 -7 0 -9 5 -6 10 3 6 1 10 -4 10 -6 0 -11 5 -11 11 0 6 -11 20 -24 30 -29
23 -29 59 0 92 10 12 19 24 20 27 0 3 8 22 18 42 9 21 15 40 14 43 -3 5 34 33
43 31 3 0 14 7 23 17 18 17 18 19 0 35 -20 18 -64 25 -64 11 0 -5 -9 -9 -20
-9 -11 0 -20 -5 -20 -11 0 -6 -7 -9 -15 -5 -8 3 -21 -1 -29 -10 -8 -8 -19 -13
-23 -12 -16 5 -83 -26 -83 -38 0 -7 12 -14 28 -16 22 -2 27 -8 28 -33 1 -16
-3 -35 -8 -42 -5 -7 -7 -16 -4 -22 3 -5 -1 -12 -10 -15 -8 -3 -13 -10 -10 -15
4 -5 2 -11 -3 -13 -6 -1 -12 -16 -15 -33 -3 -16 -10 -31 -15 -33 -6 -2 -7 -10
-4 -18 3 -9 -1 -14 -12 -14 -11 0 -15 5 -11 16 3 8 0 27 -8 42 -7 15 -11 33
-9 40 3 7 0 19 -6 26 -9 11 -7 23 6 50 15 32 15 38 2 51 -13 14 -20 13 -55 -4
-21 -11 -59 -25 -84 -33 -57 -16 -79 -35 -53 -45 38 -15 54 -44 59 -115 3 -42
2 -48 -15 -48 -11 0 -23 5 -27 11 -5 8 -8 8 -13 0 -4 -6 -22 -13 -40 -15 -18
-2 -36 -8 -40 -12 -3 -5 -15 -9 -26 -9 -11 1 -22 -3 -25 -7 -3 -3 -17 -8 -30
-10 -14 -2 -34 -9 -46 -15 -16 -9 -24 -9 -33 0 -10 9 -12 9 -9 -3 2 -11 -8
-15 -45 -15 -27 -1 -51 -6 -55 -11 -4 -6 -25 -10 -47 -10 -22 1 -46 -4 -52
-11 -13 -11 -53 -7 -53 6 0 14 25 61 33 61 4 0 7 9 7 20 0 11 5 20 11 20 6 0
9 6 6 13 -2 6 2 24 10 40 7 15 11 27 7 27 -3 0 0 10 8 23 8 12 14 29 13 37 0
8 3 18 7 21 4 3 9 18 10 35 1 16 4 34 7 39 8 15 13 38 13 62 0 13 5 20 10 17
6 -4 8 -1 6 7 -3 8 -1 24 3 37 5 12 5 22 1 22 -13 0 -6 51 7 60 10 5 10 13 3
27 -16 29 -21 76 -9 91 5 6 6 12 1 12 -5 0 -8 19 -8 42 1 27 -4 50 -15 62 -9
11 -10 16 -3 12 15 -9 15 -1 2 25 -7 13 -7 25 -1 38 7 13 6 24 -4 37 -8 11
-15 31 -15 47 0 15 -5 27 -11 27 -6 0 -9 9 -6 20 3 10 -1 24 -8 30 -7 6 -12
19 -10 28 1 9 -3 20 -9 24 -6 4 -11 11 -11 15 -1 4 -6 18 -13 29 -6 12 -8 24
-5 28 3 3 1 6 -5 6 -7 0 -12 7 -12 15 0 8 -4 15 -10 15 -5 0 -10 7 -10 15 0 9
-9 25 -20 37 -10 12 -17 25 -14 30 3 4 1 8 -5 8 -6 0 -13 11 -17 25 -3 14 -10
25 -15 25 -5 0 -15 16 -23 35 -8 19 -19 35 -23 35 -5 0 -17 16 -27 35 -10 19
-22 32 -27 30 -4 -3 -10 4 -14 14 -4 12 -12 18 -21 14 -7 -3 -14 -1 -14 4 0 6
-24 23 -52 38 -29 16 -55 32 -58 36 -3 5 -15 10 -25 12 -30 5 -105 41 -105 49
0 5 -18 8 -40 8 -22 0 -40 5 -40 10 0 6 -9 10 -20 10 -11 0 -20 5 -20 10 0 6
-47 9 -125 8 -69 -1 -125 -5 -125 -9 0 -4 -15 -7 -32 -8 -18 0 -44 -3 -58 -7
-14 -3 -47 -8 -74 -9 -27 -2 -52 -8 -56 -15 -4 -6 -11 -10 -16 -8 -5 1 -19 -3
-30 -10 -12 -6 -31 -9 -43 -7 -12 2 -19 0 -16 -6 4 -5 1 -9 -4 -9 -19 0 -26
-2 -46 -13 -11 -6 -23 -11 -27 -12 -3 0 -10 -3 -14 -7 -4 -5 -18 -8 -31 -8
-13 0 -26 -7 -29 -15 -4 -8 -10 -12 -15 -9 -6 3 -16 0 -24 -6 -8 -7 -22 -10
-30 -6 -9 3 -18 -1 -22 -10 -3 -8 -12 -13 -19 -10 -8 3 -14 2 -14 -2 0 -10
-59 -35 -86 -36 -12 -1 -29 -7 -37 -14 -13 -11 -17 -10 -24 5 -5 10 -8 27 -8
38 0 11 -3 22 -7 25 -4 3 -9 15 -12 25 -10 47 -19 63 -37 68 -11 3 -18 9 -17
14 2 5 -9 21 -24 36 -24 24 -34 27 -97 27 -47 0 -74 -5 -84 -15z m1161 -344
c13 -1 21 -5 18 -9 -2 -4 19 -7 47 -7 29 1 58 -4 64 -11 7 -7 21 -11 30 -10
10 2 24 -3 31 -11 12 -11 17 -11 30 -1 12 10 14 10 8 1 -4 -7 -3 -13 3 -13 5
0 30 -15 54 -34 25 -19 48 -32 51 -29 5 6 7 -4 5 -23 0 -3 8 -13 18 -22 10 -9
25 -30 33 -47 8 -16 23 -40 34 -52 11 -13 17 -26 13 -29 -3 -4 4 -25 16 -48
13 -22 22 -48 22 -56 0 -8 3 -18 8 -21 4 -3 10 -19 13 -35 3 -16 8 -31 12 -34
4 -3 7 -12 7 -20 -1 -8 2 -19 6 -25 11 -15 14 -68 6 -83 -5 -6 -5 -12 0 -12 4
0 7 -35 6 -77 -1 -43 -2 -91 -2 -106 -1 -16 -5 -26 -10 -23 -5 3 -9 -10 -9
-30 0 -20 -4 -39 -9 -43 -5 -3 -8 -15 -8 -26 0 -11 -4 -29 -10 -40 -6 -11 -11
-27 -10 -35 0 -8 -8 -24 -17 -34 -16 -17 -23 -40 -16 -48 4 -5 -67 -76 -73
-72 -3 2 -15 -7 -26 -19 -31 -34 -62 -57 -77 -57 -7 0 -23 13 -35 28 -20 27
-24 28 -102 27 -45 -1 -84 -7 -88 -13 -3 -6 -19 -14 -34 -17 -15 -4 -27 -11
-27 -17 0 -5 -5 -6 -12 -2 -6 4 -8 3 -5 -3 4 -6 -6 -34 -21 -64 -29 -60 -37
-144 -14 -168 7 -7 10 -17 5 -20 -14 -12 -84 -33 -90 -27 -3 3 -18 -1 -34 -9
-15 -8 -39 -15 -54 -15 -14 0 -25 -4 -25 -8 0 -5 -14 -8 -31 -7 -17 1 -36 -3
-42 -9 -7 -6 -30 -12 -51 -14 -22 -1 -45 -7 -53 -14 -7 -6 -16 -8 -19 -5 -3 3
-18 1 -33 -5 -14 -6 -33 -11 -41 -12 -8 -1 -23 -6 -34 -11 -18 -8 -40 11 -30
27 3 5 -1 15 -9 22 -8 8 -13 27 -12 41 2 14 -2 28 -9 31 -7 3 -11 21 -9 49 1
25 -2 45 -7 45 -6 0 -10 25 -10 55 0 30 -4 55 -10 55 -5 0 -10 23 -10 50 0 28
-4 50 -10 50 -5 0 -10 15 -10 34 0 19 -4 37 -9 41 -6 3 -9 28 -7 56 1 28 -3
62 -10 75 -7 13 -11 24 -9 24 2 0 -2 19 -8 43 -7 23 -12 61 -12 85 1 23 -2 42
-6 42 -4 0 -9 9 -12 20 -3 11 -1 20 4 20 5 0 4 11 -1 25 -5 14 -6 25 -2 25 4
0 1 4 -6 9 -15 9 -22 42 -25 111 -1 25 -5 47 -9 50 -4 3 -10 30 -13 60 -3 30
-10 57 -16 61 -7 4 -9 12 -5 18 4 6 1 21 -7 33 -7 13 -13 38 -12 56 1 17 -2
32 -7 32 -4 0 -8 8 -8 18 0 18 41 42 72 42 10 0 18 5 18 10 0 6 14 10 30 10
17 0 30 5 30 11 0 5 4 8 8 5 5 -3 20 1 35 9 15 8 27 12 27 9 0 -2 16 3 36 11
20 8 40 13 44 10 4 -3 11 2 14 10 3 8 9 14 13 13 9 -1 54 9 93 22 14 4 34 11
45 15 11 3 20 5 20 4 0 -1 18 6 39 15 22 9 46 14 53 12 7 -3 13 2 13 10 0 10
6 14 14 11 7 -3 24 0 37 7 13 7 49 11 79 11 30 -1 63 4 72 10 10 6 28 11 40 9
13 -1 33 -3 46 -3z m38 -1749 c-7 -15 -11 -33 -9 -39 3 -7 0 -13 -5 -13 -5 0
-12 -9 -15 -20 -3 -10 -2 -19 2 -18 27 3 38 -4 37 -24 -1 -24 60 -92 75 -83 4
3 10 1 14 -5 4 -6 11 -8 16 -5 5 4 9 1 9 -4 0 -6 11 -11 25 -11 14 0 25 4 25
8 0 5 6 9 13 10 41 3 81 25 120 64 16 15 26 28 22 28 -3 0 -1 9 5 20 6 11 19
20 28 20 10 0 22 4 28 10 10 10 27 6 138 -26 48 -14 137 -67 172 -102 10 -9
21 -17 25 -17 4 0 21 -12 37 -27 17 -14 33 -24 36 -21 4 5 22 -29 31 -57 3
-11 40 -85 45 -90 12 -12 30 -51 30 -65 0 -8 3 -15 8 -15 12 0 34 -59 28 -75
-3 -9 1 -15 10 -15 10 0 13 -8 10 -26 -3 -16 0 -27 10 -31 9 -3 12 -14 9 -31
-2 -14 1 -32 8 -40 7 -8 12 -22 12 -31 0 -9 4 -22 9 -30 12 -19 14 -183 3
-198 -5 -8 -6 -13 -1 -13 12 0 9 -61 -3 -86 -5 -11 -9 -26 -8 -34 1 -8 -4 -24
-10 -35 -7 -11 -12 -32 -11 -45 1 -14 -4 -31 -11 -38 -7 -8 -10 -18 -7 -24 3
-5 -3 -19 -13 -31 -20 -22 -37 -56 -35 -69 1 -4 -10 -16 -24 -27 -14 -11 -23
-25 -19 -31 3 -5 -1 -13 -9 -16 -9 -3 -13 -10 -10 -15 6 -11 -71 -89 -108
-108 -15 -8 -24 -19 -21 -24 4 -6 0 -8 -9 -5 -8 4 -35 -3 -59 -14 -24 -12 -53
-23 -64 -25 -10 -2 -23 -9 -27 -16 -4 -6 -8 -8 -8 -3 0 5 -6 3 -14 -3 -8 -7
-28 -13 -45 -13 -17 -1 -31 -4 -31 -7 0 -4 -26 -12 -57 -20 -32 -7 -62 -16
-68 -21 -10 -8 -62 -19 -105 -23 -14 -1 -31 -7 -38 -14 -7 -7 -28 -10 -47 -9
-20 2 -39 -2 -45 -9 -6 -8 -22 -11 -36 -9 -16 3 -23 1 -19 -6 6 -9 -14 -14
-42 -11 -7 1 -13 -3 -13 -9 0 -5 -11 -10 -24 -10 -14 0 -28 -5 -31 -11 -4 -6
-13 -8 -21 -5 -8 3 -14 1 -14 -5 0 -5 -12 -14 -26 -19 -15 -6 -35 -21 -46 -35
-10 -13 -25 -22 -32 -19 -8 3 -17 1 -21 -5 -3 -6 -9 -11 -13 -11 -12 0 -35 61
-37 99 -2 51 -16 101 -27 101 -5 0 -8 31 -6 70 2 38 -1 71 -6 73 -5 2 -10 17
-11 33 0 16 -5 36 -10 44 -5 8 -10 32 -10 53 0 21 -5 41 -10 45 -6 4 -10 32
-9 62 0 31 -5 62 -13 71 -7 8 -11 25 -8 38 2 13 -2 29 -9 37 -8 7 -12 23 -9
34 3 11 1 20 -3 20 -5 0 -10 28 -12 61 -2 34 -7 72 -13 86 -5 13 -9 35 -9 49
0 13 -4 24 -8 24 -4 0 -9 26 -10 57 -1 31 -6 59 -12 63 -5 3 -8 16 -5 29 2 13
-2 35 -9 50 -8 14 -13 41 -11 60 2 20 -3 41 -12 49 -8 8 -12 21 -9 29 3 8 0
26 -7 41 -7 15 -12 47 -11 72 1 25 -3 51 -9 57 -5 7 -7 25 -4 39 3 16 0 28 -9
31 -8 3 -12 18 -10 41 1 21 -2 46 -8 57 -12 25 -18 74 -11 95 3 10 15 16 28
15 12 -1 24 1 27 6 3 4 14 9 25 11 11 1 23 6 26 10 3 5 18 10 35 11 49 6 94
19 100 28 3 5 16 9 29 9 13 0 26 4 29 9 3 4 18 8 33 7 15 -1 33 4 40 10 6 6
31 10 55 9 24 0 46 3 49 7 3 5 24 10 47 11 22 1 44 6 48 10 16 15 23 -6 10
-31z"/>
</g>
</svg>
